<svg width="40" height="40" viewBox="0 0 40 40" fill="none" xmlns="http://www.w3.org/2000/svg">
<path d="M38.2276 1.77327C37.0904 0.63777 35.549 0 33.942 0C32.335 0 30.7936 0.63777 29.6564 1.77327L2.45062 28.9796C1.67153 29.7543 1.0538 30.6758 0.633162 31.6908C0.212523 32.7059 -0.00267303 33.7942 2.506e-05 34.8929V38.3272C2.506e-05 38.7708 0.176262 39.1963 0.489965 39.51C0.803668 39.8237 1.22914 40 1.67278 40H5.10696C6.20557 40.0031 7.29388 39.7882 8.30888 39.3678C9.32389 38.9475 10.2454 38.3299 11.0202 37.551L38.2276 10.343C39.3626 9.20582 40 7.66479 40 6.05813C40 4.45147 39.3626 2.91044 38.2276 1.77327ZM8.65488 35.1857C7.71145 36.1228 6.43674 36.6505 5.10696 36.6544H3.34554V34.8929C3.34385 34.2337 3.47294 33.5807 3.72532 32.9716C3.97771 32.3626 4.34839 31.8097 4.8159 31.3449L25.4628 10.6976L29.3101 14.5451L8.65488 35.1857ZM35.8606 7.97766L31.6687 12.1714L27.8214 8.33229L32.015 4.1386C32.2676 3.88652 32.5674 3.68667 32.8972 3.55046C33.2271 3.41425 33.5806 3.34434 33.9374 3.34473C34.2943 3.34512 34.6476 3.41579 34.9771 3.55272C35.3067 3.68965 35.6061 3.89016 35.8581 4.14278C36.1102 4.39541 36.3101 4.69521 36.4463 5.02507C36.5825 5.35493 36.6524 5.70839 36.652 6.06527C36.6516 6.42215 36.5809 6.77546 36.444 7.10502C36.3071 7.43458 36.1066 7.73395 35.854 7.98603L35.8606 7.97766Z" fill="#FFF0E1"/>
</svg>
