<svg width="40" height="40" viewBox="0 0 40 40" fill="none" xmlns="http://www.w3.org/2000/svg">
<path d="M38.535 15.0884L25.8933 2.4375C24.3287 0.87655 22.2094 0 20 0C17.7906 0 15.6713 0.87655 14.1067 2.4375L1.46502 15.0884C0.999061 15.5517 0.629636 16.1029 0.378157 16.71C0.126679 17.3172 -0.00185067 17.9683 2.01324e-05 18.6255V34.997C2.01324e-05 36.3239 0.526804 37.5964 1.46448 38.5347C2.40217 39.4729 3.67393 40 5.00002 40H35C36.3261 40 37.5978 39.4729 38.5355 38.5347C39.4732 37.5964 40 36.3239 40 34.997V18.6255C40.0019 17.9683 39.8733 17.3172 39.6218 16.71C39.3704 16.1029 39.0009 15.5517 38.535 15.0884ZM25 36.6647H15V30.1041C15 28.7772 15.5268 27.5047 16.4645 26.5664C17.4022 25.6282 18.6739 25.1011 20 25.1011C21.3261 25.1011 22.5979 25.6282 23.5355 26.5664C24.4732 27.5047 25 28.7772 25 30.1041V36.6647ZM36.6666 34.997C36.6666 35.4393 36.4911 35.8635 36.1785 36.1762C35.8659 36.489 35.442 36.6647 35 36.6647H28.3333V30.1041C28.3333 27.8926 27.4554 25.7717 25.8926 24.208C24.3297 22.6442 22.2101 21.7657 20 21.7657C17.7899 21.7657 15.6703 22.6442 14.1074 24.208C12.5446 25.7717 11.6667 27.8926 11.6667 30.1041V36.6647H5.00002C4.55799 36.6647 4.13407 36.489 3.82151 36.1762C3.50894 35.8635 3.33335 35.4393 3.33335 34.997V18.6255C3.3349 18.1836 3.51033 17.76 3.82168 17.4465L16.4633 4.80059C17.4028 3.86491 18.6744 3.33961 20 3.33961C21.3256 3.33961 22.5972 3.86491 23.5367 4.80059L36.1783 17.4515C36.4885 17.7638 36.6638 18.1853 36.6666 18.6255V34.997Z" fill="#FFF0E1"/>
</svg>
