<svg width="24" height="24" viewBox="0 0 24 24" fill="none" xmlns="http://www.w3.org/2000/svg">
<g clip-path="url(#clip0_136_61)">
<path d="M18.813 10C19.122 10 19.414 9.857 19.603 9.613C19.792 9.369 19.858 9.051 19.782 8.752C19.471 7.535 18.837 6.423 17.949 5.535L14.464 2.05C13.142 0.728 11.384 0 9.514 0H4.999C2.243 0 0 2.243 0 5V19C0 21.757 2.243 24 5 24H8C8.552 24 9 23.552 9 23C9 22.448 8.552 22 8 22H5C3.346 22 2 20.654 2 19V5C2 3.346 3.346 2 5 2H9.515C9.678 2 9.84 2.008 10 2.023V7C10 8.654 11.346 10 13 10H18.813ZM12 7V2.659C12.379 2.877 12.732 3.147 13.05 3.465L16.535 6.95C16.849 7.264 17.118 7.618 17.338 8H13C12.449 8 12 7.551 12 7ZM23.122 11.879C21.988 10.745 20.012 10.745 18.879 11.879L12.172 18.586C11.417 19.341 11 20.346 11 21.415V23.001C11 23.553 11.448 24.001 12 24.001H13.586C14.655 24.001 15.659 23.584 16.414 22.829L23.121 16.122C23.688 15.555 24 14.802 24 14C24 13.198 23.688 12.445 23.122 11.879ZM21.707 14.707L14.999 21.414C14.622 21.792 14.12 22 13.585 22H12.999V21.414C12.999 20.88 13.207 20.378 13.585 20L20.293 13.293C20.67 12.915 21.329 12.915 21.707 13.293C21.896 13.481 22 13.732 22 14C22 14.268 21.896 14.518 21.707 14.707Z" fill="#FFF0E1"/>
</g>
<defs>
<clipPath id="clip0_136_61">
<rect width="24" height="24" fill="white"/>
</clipPath>
</defs>
</svg>
