<svg width="40" height="40" viewBox="0 0 40 40" fill="none" xmlns="http://www.w3.org/2000/svg">
<g clip-path="url(#clip0_36_122)">
<path d="M1.66667 7.91715H6.22667C6.58439 9.23337 7.36529 10.3953 8.44888 11.2237C9.53247 12.0521 10.8585 12.5009 12.2225 12.5009C13.5865 12.5009 14.9125 12.0521 15.9961 11.2237C17.0797 10.3953 17.8606 9.23337 18.2183 7.91715H38.3333C38.7754 7.91715 39.1993 7.74156 39.5118 7.429C39.8244 7.11644 40 6.69251 40 6.25048C40 5.80846 39.8244 5.38453 39.5118 5.07197C39.1993 4.75941 38.7754 4.58382 38.3333 4.58382H18.2183C17.8606 3.2676 17.0797 2.10566 15.9961 1.27727C14.9125 0.448872 13.5865 5.34058e-05 12.2225 5.34058e-05C10.8585 5.34058e-05 9.53247 0.448872 8.44888 1.27727C7.36529 2.10566 6.58439 3.2676 6.22667 4.58382H1.66667C1.22464 4.58382 0.800716 4.75941 0.488155 5.07197C0.175595 5.38453 0 5.80846 0 6.25048C0 6.69251 0.175595 7.11644 0.488155 7.429C0.800716 7.74156 1.22464 7.91715 1.66667 7.91715ZM12.2217 3.33382C12.7985 3.33382 13.3624 3.50488 13.8421 3.82537C14.3217 4.14585 14.6956 4.60137 14.9163 5.13432C15.1371 5.66728 15.1948 6.25372 15.0823 6.8195C14.9698 7.38528 14.692 7.90498 14.2841 8.31288C13.8762 8.72078 13.3565 8.99857 12.7907 9.11111C12.2249 9.22365 11.6385 9.16589 11.1055 8.94513C10.5726 8.72438 10.117 8.35054 9.79655 7.8709C9.47606 7.39125 9.305 6.82735 9.305 6.25048C9.30588 5.47721 9.61346 4.73585 10.1602 4.18906C10.707 3.64227 11.4484 3.3347 12.2217 3.33382Z" fill="#FFF0E1"/>
<path d="M38.3333 18.3318H33.7733C33.4162 17.0153 32.6356 15.853 31.5521 15.0242C30.4686 14.1955 29.1424 13.7465 27.7783 13.7465C26.4142 13.7465 25.0881 14.1955 24.0045 15.0242C22.921 15.853 22.1405 17.0153 21.7833 18.3318H1.66667C1.22464 18.3318 0.800716 18.5074 0.488155 18.82C0.175595 19.1326 0 19.5565 0 19.9985C0 20.4405 0.175595 20.8645 0.488155 21.177C0.800716 21.4896 1.22464 21.6652 1.66667 21.6652H21.7833C22.1405 22.9817 22.921 24.1441 24.0045 24.9728C25.0881 25.8015 26.4142 26.2506 27.7783 26.2506C29.1424 26.2506 30.4686 25.8015 31.5521 24.9728C32.6356 24.1441 33.4162 22.9817 33.7733 21.6652H38.3333C38.7754 21.6652 39.1993 21.4896 39.5118 21.177C39.8244 20.8645 40 20.4405 40 19.9985C40 19.5565 39.8244 19.1326 39.5118 18.82C39.1993 18.5074 38.7754 18.3318 38.3333 18.3318ZM27.7783 22.9152C27.2015 22.9152 26.6376 22.7441 26.1579 22.4236C25.6783 22.1031 25.3044 21.6476 25.0837 21.1147C24.8629 20.5817 24.8052 19.9953 24.9177 19.4295C25.0302 18.8637 25.308 18.344 25.7159 17.9361C26.1238 17.5282 26.6435 17.2504 27.2093 17.1379C27.7751 17.0254 28.3615 17.0831 28.8945 17.3039C29.4274 17.5246 29.883 17.8985 30.2035 18.3781C30.5239 18.8577 30.695 19.4217 30.695 19.9985C30.6941 20.7718 30.3865 21.5131 29.8398 22.0599C29.293 22.6067 28.5516 22.9143 27.7783 22.9152Z" fill="#FFF0E1"/>
<path d="M38.3333 32.0838H18.2183C17.8606 30.7676 17.0797 29.6057 15.9961 28.7773C14.9125 27.9489 13.5865 27.5001 12.2225 27.5001C10.8585 27.5001 9.53247 27.9489 8.44888 28.7773C7.36529 29.6057 6.58439 30.7676 6.22667 32.0838H1.66667C1.22464 32.0838 0.800716 32.2594 0.488155 32.572C0.175595 32.8846 0 33.3085 0 33.7505C0 34.1925 0.175595 34.6165 0.488155 34.929C0.800716 35.2416 1.22464 35.4172 1.66667 35.4172H6.22667C6.58439 36.7334 7.36529 37.8953 8.44888 38.7237C9.53247 39.5521 10.8585 40.0009 12.2225 40.0009C13.5865 40.0009 14.9125 39.5521 15.9961 38.7237C17.0797 37.8953 17.8606 36.7334 18.2183 35.4172H38.3333C38.7754 35.4172 39.1993 35.2416 39.5118 34.929C39.8244 34.6165 40 34.1925 40 33.7505C40 33.3085 39.8244 32.8846 39.5118 32.572C39.1993 32.2594 38.7754 32.0838 38.3333 32.0838ZM12.2217 36.6672C11.6448 36.6672 11.0809 36.4961 10.6013 36.1756C10.1216 35.8551 9.74777 35.3996 9.52702 34.8667C9.30626 34.3337 9.2485 33.7473 9.36104 33.1815C9.47358 32.6157 9.75137 32.096 10.1593 31.6881C10.5672 31.2802 11.0869 31.0024 11.6527 30.8899C12.2184 30.7774 12.8049 30.8351 13.3378 31.0559C13.8708 31.2766 14.3263 31.6505 14.6468 32.1301C14.9673 32.6097 15.1383 33.1736 15.1383 33.7505C15.137 34.5236 14.8293 35.2647 14.2826 35.8114C13.7359 36.3581 12.9948 36.6658 12.2217 36.6672Z" fill="#FFF0E1"/>
</g>
<defs>
<clipPath id="clip0_36_122">
<rect width="40" height="40" fill="white"/>
</clipPath>
</defs>
</svg>
