<svg width="33" height="40" viewBox="0 0 33 40" fill="none" xmlns="http://www.w3.org/2000/svg">
<path d="M24.75 23.3333C24.75 23.7754 24.5761 24.1993 24.2667 24.5119C23.9573 24.8244 23.5376 25 23.1 25H9.89999C9.46238 25 9.0427 24.8244 8.73326 24.5119C8.42383 24.1993 8.24999 23.7754 8.24999 23.3333C8.24999 22.8913 8.42383 22.4674 8.73326 22.1548C9.0427 21.8423 9.46238 21.6667 9.89999 21.6667H23.1C23.5376 21.6667 23.9573 21.8423 24.2667 22.1548C24.5761 22.4674 24.75 22.8913 24.75 23.3333ZM18.15 28.3333H9.89999C9.46238 28.3333 9.0427 28.5089 8.73326 28.8215C8.42383 29.1341 8.24999 29.558 8.24999 30C8.24999 30.442 8.42383 30.866 8.73326 31.1785C9.0427 31.4911 9.46238 31.6667 9.89999 31.6667H18.15C18.5876 31.6667 19.0073 31.4911 19.3167 31.1785C19.6261 30.866 19.8 30.442 19.8 30C19.8 29.558 19.6261 29.1341 19.3167 28.8215C19.0073 28.5089 18.5876 28.3333 18.15 28.3333ZM33 17.475V31.6667C32.9973 33.876 32.1273 35.9941 30.5807 37.5563C29.0341 39.1185 26.9372 39.9974 24.75 40H8.24999C6.06276 39.9974 3.96587 39.1185 2.41926 37.5563C0.872654 35.9941 0.00261996 33.876 0 31.6667V8.33336C0.00261996 6.12404 0.872654 4.00596 2.41926 2.44374C3.96587 0.881507 6.06276 0.00268484 8.24999 3.84144e-05H15.6997C17.2171 -0.00390646 18.7202 0.296018 20.1221 0.88247C21.524 1.46892 22.7969 2.33027 23.8672 3.4167L29.6158 9.2267C30.692 10.3071 31.5453 11.5925 32.1262 13.0083C32.7071 14.4242 33.0041 15.9424 33 17.475ZM21.5341 5.77337C21.0148 5.2653 20.4318 4.82824 19.8 4.47337V11.6667C19.8 12.1087 19.9738 12.5326 20.2832 12.8452C20.5927 13.1578 21.0124 13.3334 21.45 13.3334H28.5714C28.2198 12.6953 27.7866 12.1069 27.2827 11.5834L21.5341 5.77337ZM29.7 17.475C29.7 17.2 29.6472 16.9367 29.6224 16.6667H21.45C20.1372 16.6667 18.8781 16.1399 17.9498 15.2022C17.0215 14.2645 16.5 12.9928 16.5 11.6667V3.4117C16.2327 3.3867 15.9703 3.33337 15.6997 3.33337H8.24999C6.93717 3.33337 5.67812 3.86015 4.74982 4.79783C3.82151 5.73551 3.3 7.00728 3.3 8.33336V31.6667C3.3 32.9928 3.82151 34.2645 4.74982 35.2022C5.67812 36.1399 6.93717 36.6667 8.24999 36.6667H24.75C26.0628 36.6667 27.3218 36.1399 28.2501 35.2022C29.1784 34.2645 29.7 32.9928 29.7 31.6667V17.475Z" fill="#FFF0E1"/>
</svg>
