<svg width="40" height="40" viewBox="0 0 40 40" fill="none" xmlns="http://www.w3.org/2000/svg">
<g clip-path="url(#clip0_34_56)">
<path d="M37.5914 22.7699L34.4247 11.3766C33.4965 8.03881 31.4793 5.10707 28.6936 3.04737C25.908 0.987676 22.5137 -0.0817678 19.0505 0.00903234C15.5873 0.0998325 12.2537 1.34567 9.57983 3.5485C6.90592 5.75134 5.04507 8.78476 4.29306 12.1666L1.84139 23.1916C1.57058 24.4098 1.57685 25.6733 1.85971 26.8888C2.14258 28.1043 2.69483 29.2407 3.4757 30.2142C4.25656 31.1877 5.24609 31.9733 6.37124 32.5132C7.4964 33.053 8.72843 33.3333 9.97639 33.3333H11.8331C12.2156 35.2171 13.2376 36.9107 14.726 38.1272C16.2143 39.3437 18.0775 40.0083 19.9997 40.0083C21.922 40.0083 23.7851 39.3437 25.2735 38.1272C26.7618 36.9107 27.7839 35.2171 28.1664 33.3333H29.5631C30.8477 33.3333 32.1151 33.0364 33.266 32.4657C34.4169 31.8949 35.4203 31.0658 36.1978 30.043C36.9752 29.0203 37.5057 27.8317 37.7477 26.57C37.9898 25.3083 37.9368 24.0078 37.5931 22.7699H37.5914ZM19.9997 36.6666C18.9693 36.6623 17.9653 36.3398 17.1252 35.7431C16.2851 35.1464 15.6499 34.3048 15.3064 33.3333H24.6931C24.3496 34.3048 23.7143 35.1464 22.8742 35.7431C22.0341 36.3398 21.0302 36.6623 19.9997 36.6666V36.6666ZM33.5431 28.0249C33.0786 28.641 32.4769 29.1403 31.7857 29.4832C31.0946 29.826 30.3329 30.003 29.5614 29.9999H9.97639C9.2277 29.9998 8.48859 29.8315 7.81363 29.5076C7.13866 29.1836 6.54507 28.7122 6.07666 28.1281C5.60826 27.544 5.27699 26.8622 5.10733 26.133C4.93766 25.4038 4.93393 24.6458 5.09639 23.9149L7.54639 12.8883C8.13698 10.2319 9.59857 7.84926 11.6988 6.119C13.7991 4.38875 16.4174 3.41021 19.1377 3.33894C21.8579 3.26768 24.5239 4.10778 26.7119 5.7257C28.8999 7.34362 30.4842 9.6465 31.2131 12.2683L34.3797 23.6616C34.589 24.4039 34.6223 25.1847 34.4771 25.9421C34.3318 26.6996 34.012 27.4127 33.5431 28.0249V28.0249Z" fill="black"/>
</g>
<defs>
<clipPath id="clip0_34_56">
<rect width="40" height="40" fill="white"/>
</clipPath>
</defs>
</svg>
