<svg width="40" height="40" viewBox="0 0 40 40" fill="none" xmlns="http://www.w3.org/2000/svg">
<g clip-path="url(#clip0_36_126)">
<path d="M24.9996 6.41432C25.0049 6.74576 25.1069 7.06844 25.2932 7.34265C25.4794 7.61685 25.7418 7.83062 26.048 7.95765C28.785 9.16195 31.0996 11.1568 32.6947 13.6862C34.2897 16.2155 35.0924 19.1638 34.9996 22.1527C34.9351 26.1309 33.2928 29.9206 30.4342 32.688C27.5755 35.4554 23.7345 36.9739 19.7563 36.9093C15.778 36.8448 11.9884 35.2025 9.22096 32.3439C6.45355 29.4852 4.93509 25.6442 4.99962 21.666C5.00347 18.7597 5.85153 15.9171 7.44071 13.4838C9.02988 11.0505 11.2917 9.1312 13.9513 7.95932C14.2576 7.83153 14.52 7.61711 14.7062 7.34237C14.8924 7.06763 14.9944 6.74451 14.9996 6.41265C15.0001 6.13967 14.9334 5.87076 14.8056 5.62955C14.6778 5.38835 14.4926 5.18224 14.2665 5.02934C14.0403 4.87644 13.7801 4.78142 13.5086 4.75265C13.2372 4.72387 12.9628 4.76222 12.7096 4.86432C8.84176 6.54122 5.66999 9.49989 3.72856 13.242C1.78713 16.9841 1.19467 21.2809 2.05097 25.4087C2.90727 29.5366 5.16001 33.2432 8.42974 35.9043C11.6995 38.5653 15.7864 40.0182 20.0021 40.0182C24.2178 40.0182 28.3048 38.5653 31.5745 35.9043C34.8442 33.2432 37.097 29.5366 37.9533 25.4087C38.8096 21.2809 38.2171 16.9841 36.2757 13.242C34.3343 9.49989 31.1625 6.54122 27.2946 4.86432C27.0411 4.76111 26.766 4.72195 26.4937 4.75029C26.2214 4.77864 25.9603 4.87361 25.7335 5.02683C25.5066 5.18005 25.321 5.38679 25.193 5.62878C25.065 5.87077 24.9986 6.14056 24.9996 6.41432Z" fill="#FFF0E1"/>
<path d="M21.667 1.66665C21.667 0.746177 20.9208 -1.52588e-05 20.0003 -1.52588e-05C19.0798 -1.52588e-05 18.3336 0.746177 18.3336 1.66665V11.6667C18.3336 12.5871 19.0798 13.3333 20.0003 13.3333C20.9208 13.3333 21.667 12.5871 21.667 11.6667V1.66665Z" fill="#FFF0E1"/>
</g>
<defs>
<clipPath id="clip0_36_126">
<rect width="40" height="40" fill="white"/>
</clipPath>
</defs>
</svg>
